<svg xmlns="http://www.w3.org/2000/svg" width="860" height="860" fill="none" viewBox="0 0 860 860">
  <circle cx="430" cy="430" r="430" fill="#F71A1A"/>
  <path fill="#1545F0" d="M164.438 295.367c136.294-70.346 204.592-134.132 222.193-157.805M163.438 295.625v.82l.729-.376c137.631-70.966 206.15-135.33 223.237-158.711l.581-.796H281.998l-.142.126-118.25 104.813-.168.149v53.975Zm486.66-54.166-.223.148v54.235l.159.149 40.312 37.625.144.134h48.802l.15-.175 32.25-37.625.235-.273-.186-.309-32.25-53.75-.069-.115-.117-.065-48.375-26.875-.266-.148-.254.169-40.312 26.875ZM282.377 137.562h103.63c-17.874 23.806-86.027 87.252-221.569 157.242V242.1l117.939-104.538Zm368.498 157.846v-53.265l39.836-26.558 47.992 26.662 31.995 53.326-31.865 37.177h-47.948l-40.01-37.342Zm-449.639 75.088-.707.609.899.251 134.375 37.625.287.081.207-.215 72.563-75.25.075-.078.036-.103 32.133-91.041h68.895l-37.45 165.851L335.8 523.524l-171.653-34.867-107.21-80.407V242.086l107.34-104.656 85.91-75.172 85.827-26.82H408.4l64.1 26.708v74.687L201.236 370.496ZM649.875 62.313v75.249h51.436l69.65 37.504 42.851 66.955v53.471l-42.863 75.011-69.591 37.472-81.852-16.042-27.804-58.896-.584-1.238-.351 1.323-80.599 303.589-37.137 47.747-31.74-47.611L591.636 62.313h58.239ZM11.25 523.829V441.25h44.976L335.58 728.661l.025.026.029.022 104.206 80.159-52.781 29.029L11.25 523.829ZM574.814 781.65l-63.187 26.328 80.039-170.749 58.916-58.917h39.606v58.451L574.814 781.65Zm116.374-258.088V441.25h47.607l31.883 47.825-31.834 34.487h-47.656Z"/>
  <path stroke="#1545F0" d="M164.438 295.367c136.294-70.346 204.592-134.132 222.193-157.805M163.438 295.625v.82l.729-.376c137.631-70.966 206.15-135.33 223.237-158.711l.581-.796H281.998l-.142.126-118.25 104.813-.168.149v53.975Zm486.66-54.166-.223.148v54.235l.159.149 40.312 37.625.144.134h48.802l.15-.175 32.25-37.625.235-.273-.186-.309-32.25-53.75-.069-.115-.117-.065-48.375-26.875-.266-.148-.254.169-40.312 26.875ZM282.377 137.562h103.63c-17.874 23.806-86.027 87.252-221.569 157.242V242.1l117.939-104.538Zm368.498 157.846v-53.265l39.836-26.558 47.992 26.662 31.995 53.326-31.865 37.177h-47.948l-40.01-37.342Zm-449.639 75.088-.707.609.899.251 134.375 37.625.287.081.207-.215 72.563-75.25.075-.078.036-.103 32.133-91.041h68.895l-37.45 165.851L335.8 523.524l-171.653-34.867-107.21-80.407V242.086l107.34-104.656 85.91-75.172 85.827-26.82H408.4l64.1 26.708v74.687L201.236 370.496ZM649.875 62.313v75.249h51.436l69.65 37.504 42.851 66.955v53.471l-42.863 75.011-69.591 37.472-81.852-16.042-27.804-58.896-.584-1.238-.351 1.323-80.599 303.589-37.137 47.747-31.74-47.611L591.636 62.313h58.239ZM11.25 523.829V441.25h44.976L335.58 728.661l.025.026.029.022 104.206 80.159-52.781 29.029L11.25 523.829ZM574.814 781.65l-63.187 26.328 80.039-170.749 58.916-58.917h39.606v58.451L574.814 781.65Zm116.374-258.088V441.25h47.607l31.883 47.825-31.834 34.487h-47.656Z" style="mix-blend-mode:darken"/>
  <path fill="#F71A1A" d="m720.25 215 34.938 32.25v43l-34.938 43-69.875-43V215h69.875Z"/>
  <path stroke="#F71A1A" d="m720.25 215 34.938 32.25v43l-34.938 43-69.875-43V215h69.875Z" style="mix-blend-mode:darken"/>
  <path fill="#F71A1A" d="M319.812 201.562 163.938 290.25V236.5l112.874-94.062h99.438l-56.438 59.124Z"/>
  <path stroke="#F71A1A" d="M319.812 201.562 163.938 290.25V236.5l112.874-94.062h99.438l-56.438 59.124Z" style="mix-blend-mode:darken"/>
</svg>
