<svg width="1024" height="1024" viewBox="0 0 1024 1024" fill="none" xmlns="http://www.w3.org/2000/svg">
<rect width="1024" height="1024" fill="black"/>
<circle cx="512" cy="512" r="430" fill="#F71A1A"/>
<path d="M523.104 324.375H591.999L554.549 490.226L417.8 605.524L246.147 570.657L138.938 490.25V415.25V324.086L246.277 219.43L332.187 144.258L418.014 117.438H490.4L554.5 144.146V218.833L283.236 452.496L282.529 453.105L283.428 453.356L417.803 490.981L418.09 491.062L418.297 490.847L490.86 415.597L490.935 415.519L490.971 415.416L523.104 324.375ZM701.162 144.312H731.875V219.062V219.562H732.375H783.311L852.961 257.066L895.812 324.021V377.492L852.949 452.503L783.358 489.975L701.506 473.933L673.702 415.037L673.118 413.799L672.767 415.122L592.168 718.711L555.031 766.458L523.291 718.847L673.636 144.312H701.162ZM417.579 810.661L417.604 810.687L417.633 810.709L521.839 890.868L469.058 919.897L93.25 605.829V523.25H138.226L417.579 810.661ZM656.814 863.65L593.627 889.978L673.666 719.229L732.582 660.312H772.188V718.763L656.814 863.65ZM820.844 605.562H773.188V523.25H820.795L852.678 571.075L820.844 605.562Z" fill="#1545F0"/>
<path d="M523.104 324.375H591.999L554.549 490.226L417.8 605.524L246.147 570.657L138.938 490.25V415.25V324.086L246.277 219.43L332.187 144.258L418.014 117.438H490.4L554.5 144.146V218.833L283.236 452.496L282.529 453.105L283.428 453.356L417.803 490.981L418.09 491.062L418.297 490.847L490.86 415.597L490.935 415.519L490.971 415.416L523.104 324.375ZM701.162 144.312H731.875V219.062V219.562H732.375H783.311L852.961 257.066L895.812 324.021V377.492L852.949 452.503L783.358 489.975L701.506 473.933L673.702 415.037L673.118 413.799L672.767 415.122L592.168 718.711L555.031 766.458L523.291 718.847L673.636 144.312H701.162ZM417.579 810.661L417.604 810.687L417.633 810.709L521.839 890.868L469.058 919.897L93.25 605.829V523.25H138.226L417.579 810.661ZM656.814 863.65L593.627 889.978L673.666 719.229L732.582 660.312H772.188V718.763L656.814 863.65ZM820.844 605.562H773.188V523.25H820.795L852.678 571.075L820.844 605.562Z" stroke="#1545F0" style="mix-blend-mode:darken"/>
<path d="M802.25 297L837.188 329.25V372.25L802.25 415.25L732.375 372.25V297H802.25Z" fill="#F71A1A"/>
<path d="M802.25 297L837.188 329.25V372.25L802.25 415.25L732.375 372.25V297H802.25Z" stroke="#F71A1A" style="mix-blend-mode:darken"/>
<path d="M401.812 283.562L245.938 372.25V318.5L358.812 224.438H458.25L401.812 283.562Z" fill="#F71A1A"/>
<path d="M401.812 283.562L245.938 372.25V318.5L358.812 224.438H458.25L401.812 283.562Z" stroke="#F71A1A" style="mix-blend-mode:darken"/>
</svg>
